<svg xmlns="http://www.w3.org/2000/svg" viewBox="0 -960 960 960" fill="#ffffff">
    <path d="M370-80 354-208Q341-213 329.5-220T307-235L188-185 78-375 181-453Q180-460 180-466.5V-493.5Q180-500 181-507L78-585 188-775 307-725Q318-733 330-740T354-752L370-880H590L606-752Q619-747 630.5-740T653-725L772-775 882-585 779-507Q780-500 780-493.5V-466.5Q780-460 778-453L881-375 771-185 653-235Q642-227 630-220T606-208L590-80H370ZM440-160H519L533-266Q564-274 590.5-289.5T639-327L738-286 777-354 691-419Q696-433 698-448.5T700-480Q700-496 698-511.5T691-541L777-606 738-674 639-632Q617-655 590.5-670.5T533-694L520-800H441L427-694Q396-686 369.5-670.5T321-633L222-674 183-606 269-542Q264-527 262-512T260-480Q260-464 262-449T269-419L183-354 222-286 321-328Q343-305 369.5-289.5T427-266L440-160ZM482-340Q540-340 581-381T622-480Q622-538 581-579T482-620Q423-620 382.5-579T342-480Q342-422 382.5-381T482-340ZM482-550A1 1 0 01479-410 1 1 0 01482-550Z"/>
</svg>
