<svg xmlns="http://www.w3.org/2000/svg" width="352" height="352" fill="#ffffff">
    <path d="M 272 134 Q 272 125 281 125 L 300 125 Q 308 125 312 134 L 325 161 C 328 166 326 176 317 176 L 281 176 Q 272 176 272 167 Z M 29 41 A 1 1 0 0 0 29 71 L 97 71 A 1 1 0 0 1 97 101 L 55 101 A 1 1 0 0 0 55 131 L 183 131 A 1 1 0 0 1 183 161 L 16 161 A 1 1 0 0 0 16 191 L 130 191 A 1 1 0 0 1 130 221 L 68 221 Q 53 221 53 236 L 53 268 Q 53 283 68 283 L 103 283 Q 102 285 102 290 A 1 1 0 0 0 164 290 Q 164 285 163 283 L 253 283 Q 252 285 252 290 A 1 1 0 0 0 314 290 Q 314 285 313 283 L 336 283 Q 351 283 351 268 L 351 174 Q 351 169 349 165 L 325 116 Q 319 105 308 105 L 265 105 Q 250 105 250 90 L 250 56 Q 250 41 235 41 Z"/>
</svg>
